<svg width="60" height="65" viewBox="0 0 60 65" fill="none" xmlns="http://www.w3.org/2000/svg">
<path d="M23.4837 31.8964H16.8008C16.5949 31.8964 16.3974 31.9782 16.2518 32.1238L10.995 37.3807C10.9819 37.3937 10.9671 37.4087 10.9307 37.3935C10.8943 37.3784 10.8943 37.3575 10.8943 37.3391V32.6729C10.8943 32.467 10.8125 32.2695 10.6669 32.1239C10.5213 31.9783 10.3238 31.8965 10.1179 31.8965H9.28247C8.32866 31.8965 7.55279 31.1205 7.55279 30.1668V9.28246C7.55279 8.32874 8.32876 7.55277 9.28247 7.55277H30.1666C31.1205 7.55277 31.8963 8.32874 31.8963 9.28246V23.4837C31.8963 23.6896 31.9781 23.8871 32.1237 24.0327C32.2693 24.1783 32.4668 24.2601 32.6727 24.2601C32.8786 24.2601 33.0761 24.1783 33.2217 24.0327C33.3673 23.8871 33.4491 23.6896 33.4491 23.4837V9.28246C33.4492 7.47255 31.9767 6 30.1667 6H9.28247C7.47256 6 6.00002 7.47255 6.00002 9.28246V30.1667C6.00002 31.9766 7.47256 33.4492 9.28247 33.4492H9.34148V37.339C9.34148 37.9932 9.73195 38.5777 10.3364 38.8281C10.6308 38.9506 10.955 38.9828 11.2678 38.9206C11.5806 38.8584 11.8678 38.7046 12.0929 38.4787L17.1223 33.4493H23.4837C23.6896 33.4493 23.8871 33.3675 24.0327 33.2219C24.1784 33.0763 24.2602 32.8788 24.2602 32.6729C24.2602 32.4669 24.1784 32.2694 24.0327 32.1238C23.8871 31.9782 23.6896 31.8964 23.4837 31.8964Z" fill="#C5BDBA"/>
<path d="M50.2144 26.0485H29.3303C27.5202 26.0485 26.0478 27.5211 26.0478 29.331V50.2151C26.0478 52.0252 27.5203 53.4976 29.3303 53.4976H42.3746L47.404 58.527C47.6291 58.753 47.9163 58.9068 48.2291 58.969C48.5419 59.0312 48.8661 58.999 49.1605 58.8764C49.4554 58.7549 49.7075 58.5485 49.8846 58.2833C50.0618 58.0181 50.1561 57.7062 50.1554 57.3873V53.4975H50.2144C52.0244 53.4975 53.4969 52.025 53.4969 50.215V29.331C53.497 27.521 52.0244 26.0485 50.2144 26.0485ZM51.9442 50.2151C51.9442 51.169 51.1682 51.9448 50.2145 51.9448H49.3791C49.1732 51.9448 48.9758 52.0266 48.8302 52.1722C48.6846 52.3178 48.6028 52.5153 48.6028 52.7212V57.3874C48.6028 57.4059 48.6028 57.4268 48.5663 57.4418C48.53 57.4571 48.5151 57.4422 48.502 57.429L43.2452 52.1721C43.1731 52.1 43.0875 52.0428 42.9933 52.0038C42.8991 51.9648 42.7982 51.9447 42.6962 51.9447H29.3303C28.3764 51.9447 27.6006 51.1688 27.6006 50.215V29.331C27.6006 28.3772 28.3765 27.6013 29.3303 27.6013H50.2144C51.1682 27.6013 51.9441 28.3773 51.9441 29.331L51.9442 50.2151ZM20.7481 12.5489C20.6685 12.342 20.528 12.1641 20.3451 12.0388C20.1623 11.9135 19.9457 11.8467 19.724 11.8472H19.7228C19.5049 11.8469 19.2918 11.9117 19.1109 12.0333C18.93 12.1549 18.7895 12.3277 18.7074 12.5297L18.7005 12.5473L13.3681 26.5485C13.3304 26.6441 13.3121 26.7461 13.3142 26.8488C13.3163 26.9515 13.3387 27.0528 13.3802 27.1467C13.4217 27.2407 13.4814 27.3254 13.5559 27.3962C13.6304 27.4669 13.7181 27.5221 13.8141 27.5587C13.9101 27.5952 14.0124 27.6124 14.115 27.6091C14.2177 27.6058 14.3187 27.5823 14.4121 27.5397C14.5056 27.4971 14.5897 27.4365 14.6596 27.3612C14.7294 27.2859 14.7836 27.1975 14.8191 27.1011L15.9567 24.1141H23.453L23.9489 25.4281C24.0216 25.6208 24.1678 25.7767 24.3554 25.8615C24.5431 25.9463 24.7567 25.9531 24.9494 25.8804C25.142 25.8077 25.2979 25.6614 25.3827 25.4738C25.4675 25.2862 25.4743 25.0725 25.4016 24.8799L20.7481 12.5489ZM16.5481 22.5614L19.7221 14.228L22.867 22.5614H16.5481Z" fill="#C5BDBA"/>
<path d="M43.4717 45.9481C42.6475 46.5925 41.6573 46.9331 40.6083 46.9331C38.0423 46.9331 35.9547 44.8455 35.9547 42.2795C35.9547 39.7135 38.0423 37.626 40.6083 37.626H42.6966C42.9025 37.626 43.1 37.5442 43.2456 37.3986C43.3912 37.253 43.473 37.0555 43.473 36.8496C43.473 36.6437 43.3912 36.4462 43.2456 36.3006C43.1 36.155 42.9025 36.0732 42.6966 36.0732H40.1906C39.2369 36.0732 38.4609 35.2972 38.4609 34.3435C38.4609 33.3898 39.2369 32.6138 40.1906 32.6138C40.682 32.6138 41.1519 32.8241 41.4801 33.1905C41.766 33.51 42.2569 33.5371 42.5764 33.2511C42.8958 32.965 42.9229 32.4743 42.6369 32.1548C42.3288 31.8109 41.9517 31.5358 41.5302 31.3473C41.1087 31.1589 40.6523 31.0613 40.1906 31.061C38.3807 31.061 36.9081 32.5336 36.9081 34.3435C36.9081 35.2647 37.2901 36.0979 37.9033 36.6947C35.8328 37.7017 34.402 39.8265 34.402 42.2795C34.402 45.7017 37.1862 48.4858 40.6084 48.4858C42.0073 48.4858 43.3282 48.0313 44.4281 47.1715C44.5903 47.0446 44.6955 46.8586 44.7205 46.6542C44.7456 46.4498 44.6884 46.2438 44.5616 46.0816C44.4347 45.9193 44.2487 45.8141 44.0443 45.7891C43.8399 45.7641 43.6339 45.8213 43.4717 45.9481Z" fill="#C5BDBA"/>
<path d="M5.09032 50.3394C5.22226 52.7818 6.1679 55.2037 8.007 57.1116C11.2341 60.4595 16.1431 61.1862 20.1175 59.2719L19.0412 57.0314C17.5238 57.7629 15.8142 57.9968 14.1561 57.6996C12.4979 57.4025 10.9759 56.5895 9.80694 55.3766C8.45363 53.9727 7.73669 52.1914 7.60719 50.3856L12.7258 50.4797L6.47976 43.9999L6.78181e-06 50.2459L5.09032 50.3394Z" fill="#C5BDBA"/>
<path d="M54.5973 14.6278C54.4629 12.1856 53.5148 9.76465 51.6737 7.8586C48.4432 4.51403 43.5335 3.79237 39.561 5.71074L40.6396 7.9501C42.1563 7.21703 43.8656 6.98143 45.5241 7.27687C47.1825 7.57231 48.7053 8.38372 49.8755 9.59545C51.2303 10.998 51.949 12.7785 52.0804 14.5842L46.9617 14.4954L53.2143 20.9688L59.6877 14.7161L54.5973 14.6278Z" fill="#C5BDBA"/>
</svg>
