<svg width="60" height="65" viewBox="0 0 60 65" fill="none" xmlns="http://www.w3.org/2000/svg">
<path d="M23.4837 31.8964H16.8008C16.5949 31.8964 16.3974 31.9782 16.2518 32.1238L10.995 37.3807C10.9819 37.3937 10.9671 37.4087 10.9307 37.3935C10.8942 37.3784 10.8942 37.3575 10.8942 37.3391V32.6729C10.8942 32.467 10.8124 32.2695 10.6668 32.1239C10.5212 31.9783 10.3238 31.8965 10.1178 31.8965H9.28246C8.32864 31.8965 7.55277 31.1205 7.55277 30.1668V9.28246C7.55277 8.32874 8.32874 7.55277 9.28246 7.55277H30.1666C31.1204 7.55277 31.8963 8.32874 31.8963 9.28246V23.4837C31.8963 23.6896 31.9781 23.8871 32.1237 24.0327C32.2693 24.1783 32.4668 24.2601 32.6727 24.2601C32.8786 24.2601 33.0761 24.1783 33.2217 24.0327C33.3673 23.8871 33.4491 23.6896 33.4491 23.4837V9.28246C33.4492 7.47255 31.9766 6 30.1667 6H9.28246C7.47255 6 6 7.47255 6 9.28246V30.1667C6 31.9766 7.47255 33.4492 9.28246 33.4492H9.34146V37.339C9.34146 37.9932 9.73193 38.5777 10.3364 38.8281C10.6308 38.9506 10.955 38.9828 11.2678 38.9206C11.5805 38.8584 11.8677 38.7046 12.0929 38.4787L17.1223 33.4493H23.4837C23.6896 33.4493 23.8871 33.3675 24.0327 33.2219C24.1783 33.0763 24.2601 32.8788 24.2601 32.6729C24.2601 32.4669 24.1783 32.2694 24.0327 32.1238C23.8871 31.9782 23.6896 31.8964 23.4837 31.8964Z" fill="#52381D"/>
<path d="M41.4341 32.7018C41.3545 32.4948 41.214 32.317 41.0311 32.1916C40.8482 32.0663 40.6316 31.9995 40.41 32H40.4088C40.1908 31.9997 39.9777 32.0645 39.7968 32.1861C39.6159 32.3077 39.4755 32.4806 39.3934 32.6825L39.3865 32.7001L34.054 46.7013C34.0164 46.7969 33.9981 46.899 34.0002 47.0017C34.0022 47.1043 34.0247 47.2056 34.0662 47.2995C34.1076 47.3935 34.1674 47.4783 34.2418 47.549C34.3163 47.6197 34.4041 47.6749 34.5001 47.7115C34.5961 47.748 34.6983 47.7652 34.801 47.7619C34.9036 47.7587 35.0046 47.7351 35.0981 47.6925C35.1916 47.65 35.2757 47.5893 35.3455 47.514C35.4154 47.4387 35.4696 47.3503 35.5051 47.2539L36.6427 44.2669H44.139L44.6348 45.581C44.7075 45.7736 44.8538 45.9295 45.0414 46.0143C45.2291 46.0991 45.4427 46.1059 45.6353 46.0332C45.828 45.9605 45.9839 45.8143 46.0687 45.6267C46.1535 45.439 46.1603 45.2254 46.0876 45.0327L41.4341 32.7018ZM37.2341 42.7142L40.4081 34.3808L43.553 42.7142H37.2341Z" fill="#52381D"/>
<path d="M50.1666 26H29.2825C27.4724 26 26 27.4725 26 29.2825V50.1666C26 51.9766 27.4725 53.4491 29.2825 53.4491H42.3268L47.3562 58.4785C47.5813 58.7044 47.8685 58.8583 48.1813 58.9205C48.4941 58.9827 48.8183 58.9505 49.1127 58.8279C49.4076 58.7064 49.6597 58.5 49.8368 58.2348C50.014 57.9696 50.1083 57.6577 50.1076 57.3388V53.449H50.1666C51.9766 53.449 53.4491 51.9764 53.4491 50.1665V29.2825C53.4492 27.4724 51.9766 26 50.1666 26ZM51.8964 50.1666C51.8964 51.1204 51.1204 51.8963 50.1667 51.8963H49.3313C49.1254 51.8963 48.9279 51.9781 48.7823 52.1237C48.6367 52.2693 48.555 52.4668 48.555 52.6727V57.3389C48.555 57.3574 48.555 57.3783 48.5185 57.3933C48.4822 57.4085 48.4673 57.3936 48.4542 57.3805L43.1974 52.1236C43.1253 52.0515 43.0397 51.9943 42.9455 51.9553C42.8513 51.9163 42.7504 51.8962 42.6484 51.8962H29.2825C28.3286 51.8962 27.5528 51.1202 27.5528 50.1665V29.2825C27.5528 28.3286 28.3287 27.5528 29.2825 27.5528H50.1666C51.1204 27.5528 51.8963 28.3287 51.8963 29.2825L51.8964 50.1666Z" fill="#52381D"/>
<path d="M23.0696 25.8871C22.2454 26.5315 21.2553 26.872 20.2062 26.872C17.6402 26.872 15.5527 24.7845 15.5527 22.2185C15.5527 19.6525 17.6402 17.5649 20.2062 17.5649H22.2946C22.5005 17.5649 22.698 17.4831 22.8436 17.3375C22.9892 17.1919 23.071 16.9944 23.071 16.7885C23.071 16.5826 22.9892 16.3851 22.8436 16.2395C22.698 16.0939 22.5005 16.0121 22.2946 16.0121H19.7885C18.8348 16.0121 18.0588 15.2362 18.0588 14.2825C18.0588 13.3287 18.8348 12.5528 19.7885 12.5528C20.2799 12.5528 20.7499 12.763 21.0781 13.1295C21.364 13.4489 21.8549 13.4761 22.1743 13.19C22.4938 12.904 22.5209 12.4132 22.2349 12.0938C21.9268 11.7499 21.5497 11.4748 21.1282 11.2863C20.7067 11.0979 20.2502 11.0003 19.7885 11C17.9786 11 16.5061 12.4725 16.5061 14.2825C16.5061 15.2037 16.8881 16.0369 17.5013 16.6337C15.4307 17.6407 14 19.7655 14 22.2185C14 25.6407 16.7841 28.4248 20.2063 28.4248C21.6053 28.4248 22.9262 27.9703 24.026 27.1104C24.1883 26.9836 24.2935 26.7975 24.3185 26.5931C24.3435 26.3887 24.2864 26.1828 24.1595 26.0205C24.0327 25.8583 23.8466 25.7531 23.6422 25.7281C23.4378 25.703 23.2319 25.7602 23.0696 25.8871Z" fill="#52381D"/>
<path d="M5.0903 50.3394C5.22225 52.7818 6.16788 55.2037 8.00699 57.1116C11.2341 60.4595 16.143 61.1862 20.1175 59.2719L19.0412 57.0314C17.5238 57.7629 15.8142 57.9968 14.156 57.6996C12.4979 57.4025 10.9759 56.5895 9.80692 55.3766C8.45362 53.9727 7.73667 52.1914 7.60718 50.3856L12.7258 50.4797L6.47975 43.9999L-8.47698e-06 50.2459L5.0903 50.3394Z" fill="#52381D"/>
<path d="M54.5973 14.6278C54.4629 12.1856 53.5148 9.76465 51.6737 7.8586C48.4432 4.51403 43.5335 3.79237 39.561 5.71074L40.6396 7.9501C42.1563 7.21703 43.8656 6.98143 45.5241 7.27687C47.1825 7.57231 48.7053 8.38372 49.8755 9.59545C51.2303 10.998 51.949 12.7785 52.0804 14.5842L46.9617 14.4954L53.2143 20.9688L59.6877 14.7161L54.5973 14.6278Z" fill="#52381D"/>
</svg>
