<svg width="48" height="53" viewBox="0 0 48 53" fill="none" xmlns="http://www.w3.org/2000/svg">
<path d="M17.4837 25.8964H10.8008C10.5949 25.8964 10.3974 25.9782 10.2518 26.1238L4.99496 31.3807C4.98192 31.3937 4.96711 31.4087 4.93067 31.3935C4.89424 31.3784 4.89424 31.3575 4.89424 31.3391V26.6729C4.89424 26.467 4.81244 26.2695 4.66684 26.1239C4.52124 25.9783 4.32376 25.8965 4.11785 25.8965H3.28246C2.32864 25.8965 1.55277 25.1205 1.55277 24.1668V3.28246C1.55277 2.32874 2.32874 1.55277 3.28246 1.55277H24.1666C25.1204 1.55277 25.8963 2.32874 25.8963 3.28246V17.4837C25.8963 17.6896 25.9781 17.8871 26.1237 18.0327C26.2693 18.1783 26.4668 18.2601 26.6727 18.2601C26.8786 18.2601 27.0761 18.1783 27.2217 18.0327C27.3673 17.8871 27.4491 17.6896 27.4491 17.4837V3.28246C27.4492 1.47255 25.9766 0 24.1667 0H3.28246C1.47255 0 0 1.47255 0 3.28246V24.1667C0 25.9766 1.47255 27.4492 3.28246 27.4492H3.34146V31.339C3.34146 31.9932 3.73193 32.5777 4.33638 32.8281C4.6308 32.9506 4.955 32.9828 5.26777 32.9206C5.58054 32.8584 5.86774 32.7046 6.09287 32.4787L11.1223 27.4493H17.4837C17.6896 27.4493 17.8871 27.3675 18.0327 27.2219C18.1783 27.0763 18.2601 26.8788 18.2601 26.6729C18.2601 26.4669 18.1783 26.2694 18.0327 26.1238C17.8871 25.9782 17.6896 25.8964 17.4837 25.8964Z" fill="#C5BDBA"/>
<path d="M37.4717 39.9481C36.6475 40.5925 35.6573 40.9331 34.6083 40.9331C32.0423 40.9331 29.9547 38.8455 29.9547 36.2795C29.9547 33.7135 32.0423 31.626 34.6083 31.626H36.6966C36.9025 31.626 37.1 31.5442 37.2456 31.3986C37.3912 31.253 37.473 31.0555 37.473 30.8496C37.473 30.6437 37.3912 30.4462 37.2456 30.3006C37.1 30.155 36.9025 30.0732 36.6966 30.0732H34.1906C33.2369 30.0732 32.4609 29.2972 32.4609 28.3435C32.4609 27.3898 33.2369 26.6138 34.1906 26.6138C34.682 26.6138 35.1519 26.8241 35.4801 27.1905C35.766 27.51 36.2569 27.5371 36.5764 27.2511C36.8958 26.965 36.9229 26.4743 36.6369 26.1548C36.3288 25.8109 35.9517 25.5358 35.5302 25.3473C35.1087 25.1589 34.6523 25.0613 34.1906 25.061C32.3807 25.061 30.9081 26.5336 30.9081 28.3435C30.9081 29.2647 31.2901 30.0979 31.9033 30.6947C29.8328 31.7017 28.402 33.8265 28.402 36.2795C28.402 39.7017 31.1862 42.4858 34.6084 42.4858C36.0073 42.4858 37.3282 42.0313 38.4281 41.1715C38.5903 41.0446 38.6955 40.8586 38.7205 40.6542C38.7456 40.4498 38.6884 40.2438 38.5616 40.0816C38.4347 39.9193 38.2487 39.8141 38.0443 39.7891C37.8399 39.7641 37.6339 39.8213 37.4717 39.9481Z" fill="#C5BDBA"/>
<path d="M44.2144 20.0485H23.3303C21.5202 20.0485 20.0478 21.5211 20.0478 23.331V44.2151C20.0478 46.0252 21.5203 47.4976 23.3303 47.4976H36.3746L41.404 52.527C41.6291 52.753 41.9163 52.9068 42.2291 52.969C42.5419 53.0312 42.8661 52.999 43.1605 52.8764C43.4554 52.7549 43.7075 52.5485 43.8846 52.2833C44.0618 52.0181 44.1561 51.7062 44.1554 51.3873V47.4975H44.2144C46.0244 47.4975 47.4969 46.025 47.4969 44.215V23.331C47.497 21.521 46.0244 20.0485 44.2144 20.0485ZM45.9442 44.2151C45.9442 45.169 45.1682 45.9448 44.2145 45.9448H43.3791C43.1732 45.9448 42.9758 46.0266 42.8302 46.1722C42.6846 46.3178 42.6028 46.5153 42.6028 46.7212V51.3874C42.6028 51.4059 42.6028 51.4268 42.5663 51.4418C42.53 51.4571 42.5151 51.4422 42.502 51.429L37.2452 46.1721C37.1731 46.1 37.0875 46.0428 36.9933 46.0038C36.8991 45.9648 36.7982 45.9447 36.6962 45.9447H23.3303C22.3764 45.9447 21.6006 45.1688 21.6006 44.215V23.331C21.6006 22.3772 22.3765 21.6013 23.3303 21.6013H44.2144C45.1682 21.6013 45.9441 22.3773 45.9441 23.331L45.9442 44.2151ZM14.7481 6.54892C14.6685 6.34201 14.528 6.16413 14.3451 6.03882C14.1623 5.91351 13.9457 5.84668 13.724 5.84717H13.7228C13.5049 5.84689 13.2918 5.9117 13.1109 6.03329C12.93 6.15488 12.7895 6.32773 12.7074 6.52967L12.7005 6.54726L7.36807 20.5485C7.33042 20.6441 7.31211 20.7461 7.31419 20.8488C7.31626 20.9515 7.3387 21.0528 7.38018 21.1467C7.42167 21.2407 7.48138 21.3254 7.55587 21.3962C7.63035 21.4669 7.71812 21.5221 7.8141 21.5587C7.91008 21.5952 8.01236 21.6124 8.11502 21.6091C8.21767 21.6058 8.31865 21.5823 8.41213 21.5397C8.5056 21.4971 8.5897 21.4365 8.65955 21.3612C8.72941 21.2859 8.78363 21.1975 8.81908 21.1011L9.95675 18.1141H17.453L17.9489 19.4281C18.0216 19.6208 18.1678 19.7767 18.3554 19.8615C18.5431 19.9463 18.7567 19.9531 18.9494 19.8804C19.142 19.8077 19.2979 19.6614 19.3827 19.4738C19.4675 19.2862 19.4743 19.0725 19.4016 18.8799L14.7481 6.54892ZM10.5481 16.5614L13.7221 8.22798L16.867 16.5614H10.5481Z" fill="#C5BDBA"/>
</svg>
